<svg width="22" height="22" viewBox="0 0 22 22" fill="none" xmlns="http://www.w3.org/2000/svg">
<path d="M4.51602 8.70544C4.84687 7.76873 5.38398 6.88787 6.14023 6.13591C8.82578 3.45037 13.1785 3.45037 15.8641 6.13591L16.5988 6.87498H15.125C14.3645 6.87498 13.75 7.48943 13.75 8.24998C13.75 9.01052 14.3645 9.62498 15.125 9.62498H19.916H19.9332C20.6937 9.62498 21.3082 9.01052 21.3082 8.24998V3.43748C21.3082 2.67693 20.6937 2.06248 19.9332 2.06248C19.1727 2.06248 18.5582 2.67693 18.5582 3.43748V4.94998L17.8062 4.19373C14.0465 0.43396 7.95352 0.43396 4.19375 4.19373C3.14531 5.24216 2.38906 6.47537 1.925 7.79451C1.67148 8.51208 2.04961 9.29412 2.76289 9.54763C3.47617 9.80115 4.2625 9.42302 4.51602 8.70974V8.70544ZM1.67578 12.4308C1.46094 12.4953 1.25469 12.6113 1.08711 12.7832C0.915234 12.9551 0.799219 13.1613 0.739063 13.3847C0.726172 13.4363 0.713281 13.4922 0.704687 13.548C0.691797 13.6211 0.6875 13.6941 0.6875 13.7672V18.5625C0.6875 19.323 1.30195 19.9375 2.0625 19.9375C2.82305 19.9375 3.4375 19.323 3.4375 18.5625V17.0543L4.19375 17.8062C7.95352 21.5617 14.0465 21.5617 17.802 17.8062C18.8504 16.7578 19.6109 15.5246 20.075 14.2097C20.3285 13.4922 19.9504 12.7101 19.2371 12.4566C18.5238 12.2031 17.7375 12.5812 17.484 13.2945C17.1531 14.2312 16.616 15.1121 15.8598 15.864C13.1742 18.5496 8.82148 18.5496 6.13594 15.864L6.13164 15.8597L5.39687 15.125H6.875C7.63555 15.125 8.25 14.5105 8.25 13.75C8.25 12.9894 7.63555 12.375 6.875 12.375H2.07969C2.01094 12.375 1.94219 12.3793 1.87344 12.3879C1.80469 12.3965 1.74023 12.4093 1.67578 12.4308Z" fill="white"/>
</svg>
